<?xml version="1.0" encoding="utf-8"?>
<!-- Generator: Adobe Illustrator 16.0.0, SVG Export Plug-In . SVG Version: 6.00 Build 0)  -->
<!DOCTYPE svg PUBLIC "-//W3C//DTD SVG 1.1//EN" "http://www.w3.org/Graphics/SVG/1.1/DTD/svg11.dtd">
<svg version="1.1" id="图形" xmlns="http://www.w3.org/2000/svg" xmlns:xlink="http://www.w3.org/1999/xlink" x="0px" y="0px"
	 width="1000.637px" height="1000.678px" viewBox="0 0 1000.637 1000.678" enable-background="new 0 0 1000.637 1000.678"
	 xml:space="preserve">
<g>
	<path fill="#108EE9" d="M801.123,968.271H199.502c-18.456,0-33.432-14.973-33.432-33.408c0-18.457,14.976-33.432,33.432-33.432   h601.621c18.436,0,33.41,14.975,33.41,33.432C834.533,953.298,819.559,968.271,801.123,968.271z"></path>
	<path fill="#108EE9" d="M801.123,834.569H199.502c-92.12,0-167.121-69.994-167.121-155.945V188.363   c0-86.025,75.001-155.956,167.121-155.956h601.621c92.176,0,167.133,69.931,167.133,155.956v490.261   C968.256,764.575,893.299,834.569,801.123,834.569L801.123,834.569z M199.502,99.258c-55.283,0-100.271,39.971-100.271,89.105   v490.261c0,49.125,44.988,89.107,100.271,89.107h601.621c55.283,0,100.271-39.982,100.271-89.107V188.363   c0-49.135-44.988-89.105-100.271-89.105H199.502L199.502,99.258z"></path>
	<path fill="#10E9B9" d="M376.432,309.673c13.016-13.037,34.215-13.037,47.252,0l200.541,200.54   c13.036,13.038,13.036,34.227,0,47.263c-13.038,13.026-34.226,13.026-47.263,0l-200.53-200.553   c-6.486-6.529-9.773-15.104-9.773-23.656C366.658,324.712,369.945,316.157,376.432,309.673z"></path>
	<path fill="#10E9B9" d="M633.974,333.267c0,8.553-3.287,17.127-9.773,23.656L423.67,557.476c-13.037,13.026-34.225,13.026-47.263,0   c-13.036-13.036-13.036-34.225,0-47.263l200.541-200.54c13.037-13.037,34.236-13.037,47.252,0   C630.687,316.157,633.974,324.712,633.974,333.267z"></path>
</g>
</svg>