<?xml version="1.0" encoding="utf-8"?>
<!-- Generator: Adobe Illustrator 16.0.0, SVG Export Plug-In . SVG Version: 6.00 Build 0)  -->
<!DOCTYPE svg PUBLIC "-//W3C//DTD SVG 1.1//EN" "http://www.w3.org/Graphics/SVG/1.1/DTD/svg11.dtd">
<svg version="1.1" id="图形" xmlns="http://www.w3.org/2000/svg" xmlns:xlink="http://www.w3.org/1999/xlink" x="0px" y="0px"
	 width="1000.637px" height="1000.678px" viewBox="0 0 1000.637 1000.678" enable-background="new 0 0 1000.637 1000.678"
	 xml:space="preserve">
<g>
	<path fill="#108EE9" d="M801.123,968.271H199.502c-18.457,0-33.432-14.973-33.432-33.408c0-18.457,14.975-33.432,33.432-33.432   h601.621c18.436,0,33.41,14.975,33.41,33.432C834.533,953.298,819.559,968.271,801.123,968.271z"></path>
	<path fill="#108EE9" d="M801.123,834.569H199.502c-92.12,0-167.121-69.994-167.121-155.945V188.363   c0-86.025,75.001-155.956,167.121-155.956h601.621c92.176,0,167.133,69.931,167.133,155.956v490.261   C968.256,764.575,893.299,834.569,801.123,834.569L801.123,834.569z M199.502,99.258c-55.284,0-100.271,39.971-100.271,89.105   v490.261c0,49.125,44.988,89.107,100.271,89.107h601.621c55.283,0,100.271-39.982,100.271-89.107V188.363   c0-49.134-44.988-89.105-100.271-89.105H199.502L199.502,99.258z"></path>
	<path fill="#10E9B9" d="M600.582,567.19c-8.553,0-17.127-3.287-23.656-9.773l-200.553-200.53   c-13.026-13.037-13.026-34.225,0-47.262c13.037-13.037,34.225-13.037,47.263,0l200.54,200.541   c13.037,13.037,13.037,34.236,0,47.252C617.691,563.903,609.137,567.19,600.582,567.19z M400.042,567.255   c-18.457,0-33.431-14.975-33.431-33.432V299.864h233.97c18.438,0,33.41,14.974,33.41,33.43c0,18.447-14.973,33.42-33.41,33.42   h-167.12v167.109C433.462,552.345,418.489,567.255,400.042,567.255z"></path>
</g>
</svg>