<?xml version="1.0" encoding="utf-8"?>
<!-- Generator: Adobe Illustrator 16.0.0, SVG Export Plug-In . SVG Version: 6.00 Build 0)  -->
<!DOCTYPE svg PUBLIC "-//W3C//DTD SVG 1.1//EN" "http://www.w3.org/Graphics/SVG/1.1/DTD/svg11.dtd">
<svg version="1.1" id="图形" xmlns="http://www.w3.org/2000/svg" xmlns:xlink="http://www.w3.org/1999/xlink" x="0px" y="0px"
	 width="1000.637px" height="1000.678px" viewBox="0 0 1000.637 1000.678" enable-background="new 0 0 1000.637 1000.678"
	 xml:space="preserve">
<g>
	<path fill="#108EE9" d="M943.799,385.542c0-8.862,0.588-17.859-0.588-26.585c-4.973-36.485-30.925-52.513-64.563-38.181
		c-19.44,8.296-37.141,20.661-55.813,30.834c-22.063,12.026-37.052,28.189-31.062,55.362c5.539,25.001,23.851,33.186,47.451,34.022
		c4.611,0.157,9.109,3.547,13.744,5.469c0,110.768,0,220.091,0,330.904c-72.407,36.937-143.095,72.972-212.268,108.281
		c-69.988-36.665-135.658-71.772-201.949-105.682c-111.752-57.17-73.695-56.627-181.989-0.293
		c-34.236,17.813-68.1,36.35-112.407,60.063c0-101.885,0.645-192.172-0.294-282.413c-0.407-39.675-3.018-76.431,44.409-96.188
		c23.872-9.97,27.263-40.081,14.355-59.455c-14.039-21.113-34.677-24.55-56.221-15.236c-19.417,8.365-37.017,20.888-55.926,30.564
		c-24.968,12.772-34.644,32.417-34.508,60.356c0.701,140.179-0.305,280.335,0.599,420.513c0.384,59.341,28.393,74.486,82.76,46.004
		c58.13-30.428,116.34-60.856,173.07-93.77c24.369-14.151,43.415-14.625,68.348-0.746c72.802,40.509,147.718,77.268,220.78,117.324
		c27.895,15.304,51.359,14.853,79.436-0.429c71.662-38.928,144.339-76.068,217.739-111.604
		c33.186-16.073,46.025-38.272,45.552-75.21C942.759,648.151,943.82,516.835,943.799,385.542z"/>
	<path fill="#10E9B9" d="M709.134,231.538c0-115.33-93.498-208.808-208.818-208.808c-115.325,0-208.813,93.478-208.813,208.808
		c0,127.799,125.928,242.322,190.83,303.969c10.092,9.587,25.937,9.556,35.998-0.067
		C584.817,472.18,709.134,359.747,709.134,231.538z M571.588,235.775l-79.023,110.641c-4.925,6.892-15.804,3.403-15.804-5.062
		v-68.784c0-4.807-3.903-8.699-8.715-8.699h-31.919c-4.812,0-8.709-3.914-8.709-8.721c0-1.808,0.563-3.583,1.622-5.062
		l79.019-110.63c4.924-6.897,15.803-3.414,15.803,5.062v68.762c0,4.817,3.903,8.71,8.721,8.71h31.925
		C571.588,222.004,575.713,230.012,571.588,235.775z"/>
</g>
</svg>
